# Blender v2.90.0 OBJ File: 'Chess Room.blend'
# www.blender.org
mtllib LampBase.mtl
o Lamp_LampMesh
v 3.785375 0.019114 -4.283590
v 3.785376 0.194818 -3.774708
v 3.902213 0.019114 -4.272083
v 3.802935 0.194818 -3.772979
v 3.819819 0.194818 -3.767857
v 3.835380 0.194818 -3.759539
v 3.849020 0.194818 -3.748345
v 3.860214 0.194818 -3.734706
v 3.868531 0.194818 -3.719145
v 3.873653 0.194818 -3.702261
v 3.875382 0.194818 -3.684701
v 4.372757 0.019114 -3.567864
v 3.873653 0.194818 -3.667142
v 4.338677 0.019114 -3.455517
v 3.868531 0.194818 -3.650258
v 4.283333 0.019114 -3.351977
v 3.860214 0.194818 -3.634697
v 4.208854 0.019114 -3.261223
v 3.849020 0.194818 -3.621057
v 4.118100 0.019114 -3.186743
v 3.835380 0.194818 -3.609864
v 4.014560 0.019114 -3.131400
v 3.819819 0.194818 -3.601546
v 3.902213 0.019114 -3.097320
v 3.802935 0.194818 -3.596424
v 3.785375 0.019114 -3.085813
v 3.785376 0.194818 -3.594695
v 3.668538 0.019114 -3.097320
v 3.767815 0.194818 -3.596424
v 3.556190 0.019114 -3.131400
v 3.750932 0.194818 -3.601546
v 3.452650 0.019114 -3.186744
v 3.735370 0.194818 -3.609864
v 3.361897 0.019114 -3.261223
v 3.721731 0.194818 -3.621058
v 3.287417 0.019114 -3.351977
v 3.710537 0.194818 -3.634697
v 3.232074 0.019114 -3.455517
v 3.702220 0.194818 -3.650257
v 3.197994 0.019114 -3.567865
v 3.697098 0.194818 -3.667142
v 3.186486 0.019114 -3.684702
v 3.695369 0.194818 -3.684701
v 3.197994 0.019114 -3.801539
v 3.697098 0.194818 -3.702261
v 3.232074 0.019114 -3.913887
v 3.702220 0.194818 -3.719146
v 3.287418 0.019114 -4.017427
v 3.710538 0.194818 -3.734707
v 3.361897 0.019114 -4.108181
v 3.721731 0.194818 -3.748346
v 3.452651 0.019114 -4.182660
v 3.735371 0.194818 -3.759540
v 3.556191 0.019114 -4.238003
v 3.750930 0.194818 -3.767857
v 3.668539 0.019114 -4.272083
v 3.767816 0.194818 -3.772979
v 3.902213 0.194818 -4.272083
v 3.785375 0.194818 -4.283590
v 4.014560 0.194818 -4.238003
v 4.118100 0.194818 -4.182659
v 4.208854 0.194818 -4.108180
v 4.283333 0.194818 -4.017426
v 4.338677 0.194818 -3.913886
v 4.372757 0.194818 -3.801539
v 4.384264 0.194818 -3.684701
v 4.372757 0.194818 -3.567864
v 4.338677 0.194818 -3.455517
v 4.283333 0.194818 -3.351977
v 4.208854 0.194818 -3.261223
v 4.118100 0.194818 -3.186743
v 4.014560 0.194818 -3.131400
v 3.902213 0.194818 -3.097320
v 3.785375 0.194818 -3.085813
v 3.668538 0.194818 -3.097320
v 3.556190 0.194818 -3.131400
v 3.452650 0.194818 -3.186744
v 3.361897 0.194818 -3.261223
v 3.287417 0.194818 -3.351977
v 3.232074 0.194818 -3.455517
v 3.197994 0.194818 -3.567865
v 3.186486 0.194818 -3.684702
v 3.197994 0.194818 -3.801539
v 3.232074 0.194818 -3.913887
v 3.287418 0.194818 -4.017427
v 3.361897 0.194818 -4.108181
v 3.452651 0.194818 -4.182660
v 3.556191 0.194818 -4.238003
v 3.668539 0.194818 -4.272083
v 3.802936 4.220363 -3.772979
v 3.785376 4.220363 -3.774708
v 3.819820 4.220363 -3.767857
v 3.835381 4.220363 -3.759539
v 3.849021 4.220363 -3.748345
v 3.860214 4.220363 -3.734706
v 3.868532 4.220363 -3.719145
v 3.873653 4.220363 -3.702261
v 3.875383 4.220363 -3.684701
v 3.873653 4.220363 -3.667142
v 3.868532 4.220363 -3.650258
v 3.860214 4.220363 -3.634697
v 3.849020 4.220363 -3.621057
v 3.835381 4.220363 -3.609864
v 3.819820 4.220363 -3.601546
v 3.802936 4.220363 -3.596424
v 3.785377 4.220363 -3.594695
v 3.767816 4.220363 -3.596424
v 3.750932 4.220363 -3.601546
v 3.735371 4.220363 -3.609864
v 3.721731 4.220363 -3.621058
v 3.710538 4.220363 -3.634697
v 3.702221 4.220363 -3.650257
v 3.697099 4.220363 -3.667142
v 3.695369 4.220363 -3.684701
v 3.697099 4.220363 -3.702261
v 3.702221 4.220363 -3.719146
v 3.710538 4.220363 -3.734707
v 3.721732 4.220363 -3.748346
v 3.735371 4.220363 -3.759540
v 3.750931 4.220363 -3.767857
v 3.767816 4.220363 -3.772979
vt 1.000000 0.500000
vt 1.000000 1.000000
vt 0.968750 1.000000
vt 0.968750 0.500000
vt 0.718750 0.500000
vt 0.718750 1.000000
vt 0.687500 1.000000
vt 0.687500 0.500000
vt 0.656250 1.000000
vt 0.656250 0.500000
vt 0.625000 1.000000
vt 0.625000 0.500000
vt 0.593750 1.000000
vt 0.593750 0.500000
vt 0.562500 1.000000
vt 0.562500 0.500000
vt 0.531250 1.000000
vt 0.531250 0.500000
vt 0.500000 1.000000
vt 0.500000 0.500000
vt 0.468750 1.000000
vt 0.468750 0.500000
vt 0.437500 1.000000
vt 0.437500 0.500000
vt 0.406250 1.000000
vt 0.406250 0.500000
vt 0.375000 1.000000
vt 0.375000 0.500000
vt 0.343750 1.000000
vt 0.343750 0.500000
vt 0.312500 1.000000
vt 0.312500 0.500000
vt 0.281250 1.000000
vt 0.281250 0.500000
vt 0.250000 1.000000
vt 0.250000 0.500000
vt 0.218750 1.000000
vt 0.218750 0.500000
vt 0.187500 1.000000
vt 0.187500 0.500000
vt 0.156250 1.000000
vt 0.156250 0.500000
vt 0.125000 1.000000
vt 0.125000 0.500000
vt 0.093750 1.000000
vt 0.093750 0.500000
vt 0.062500 1.000000
vt 0.062500 0.500000
vt 0.214624 0.257037
vt 0.213931 0.250000
vt 0.213931 0.250000
vt 0.214624 0.257037
vt 0.031250 1.000000
vt 0.031250 0.500000
vt 0.000000 1.000000
vt 0.000000 0.500000
vt 0.250000 0.286069
vt 0.257037 0.285376
vt 0.296822 0.485388
vt 0.250000 0.490000
vt 0.263803 0.283324
vt 0.341844 0.471731
vt 0.270039 0.279991
vt 0.383337 0.449553
vt 0.275505 0.275505
vt 0.419706 0.419706
vt 0.279991 0.270039
vt 0.449553 0.383337
vt 0.283324 0.263803
vt 0.471731 0.341844
vt 0.285376 0.257037
vt 0.485388 0.296822
vt 0.286069 0.250000
vt 0.490000 0.250000
vt 0.285376 0.242963
vt 0.485388 0.203178
vt 0.283324 0.236197
vt 0.471731 0.158156
vt 0.279991 0.229961
vt 0.449553 0.116663
vt 0.275505 0.224495
vt 0.419706 0.080294
vt 0.270039 0.220009
vt 0.383337 0.050447
vt 0.263803 0.216676
vt 0.341844 0.028269
vt 0.257037 0.214624
vt 0.296822 0.014612
vt 0.250000 0.213931
vt 0.250000 0.010000
vt 0.242963 0.214624
vt 0.203178 0.014612
vt 0.236197 0.216676
vt 0.158156 0.028269
vt 0.229961 0.220009
vt 0.116663 0.050447
vt 0.224495 0.224495
vt 0.080294 0.080294
vt 0.220009 0.229961
vt 0.050447 0.116663
vt 0.216676 0.236197
vt 0.028269 0.158156
vt 0.214624 0.242963
vt 0.014611 0.203179
vt 0.010000 0.250000
vt 0.014612 0.296822
vt 0.216676 0.263803
vt 0.028269 0.341844
vt 0.220009 0.270039
vt 0.050447 0.383337
vt 0.224495 0.275505
vt 0.080295 0.419706
vt 0.229961 0.279991
vt 0.116663 0.449553
vt 0.236196 0.283324
vt 0.158156 0.471731
vt 0.242963 0.285376
vt 0.203179 0.485389
vt 0.257037 0.285376
vt 0.250000 0.286069
vt 0.242963 0.285376
vt 0.236196 0.283324
vt 0.229961 0.279991
vt 0.224495 0.275505
vt 0.220009 0.270039
vt 0.216676 0.263803
vt 0.214624 0.242963
vt 0.216676 0.236197
vt 0.220009 0.229961
vt 0.224495 0.224495
vt 0.229961 0.220009
vt 0.236197 0.216676
vt 0.242963 0.214624
vt 0.250000 0.213931
vt 0.257037 0.214624
vt 0.263803 0.216676
vt 0.270039 0.220009
vt 0.275505 0.224495
vt 0.279991 0.229961
vt 0.283324 0.236197
vt 0.285376 0.242963
vt 0.286069 0.250000
vt 0.285376 0.257037
vt 0.283324 0.263803
vt 0.279991 0.270039
vt 0.275505 0.275505
vt 0.270039 0.279991
vt 0.263803 0.283324
vn 0.0980 0.0000 -0.9952
vn 0.9569 0.0000 0.2903
vn 0.8819 0.0000 0.4714
vn 0.7730 0.0000 0.6344
vn 0.6344 0.0000 0.7730
vn 0.4714 0.0000 0.8819
vn 0.2903 0.0000 0.9569
vn 0.0980 0.0000 0.9952
vn -0.0980 0.0000 0.9952
vn -0.2903 0.0000 0.9569
vn -0.4714 0.0000 0.8819
vn -0.6344 0.0000 0.7730
vn -0.7730 0.0000 0.6344
vn -0.8819 0.0000 0.4714
vn -0.9569 0.0000 0.2903
vn -0.9952 0.0000 0.0980
vn -0.9952 0.0000 -0.0980
vn -0.9569 0.0000 -0.2903
vn -0.8819 0.0000 -0.4714
vn -0.7730 0.0000 -0.6344
vn -0.6344 0.0000 -0.7730
vn -0.4714 0.0000 -0.8819
vn -0.2903 0.0000 -0.9569
vn -0.0980 0.0000 -0.9952
vn 0.0000 1.0000 0.0000
usemtl (null)
s off
f 1/1/1 59/2/1 58/3/1 3/4/1
f 12/5/2 67/6/2 68/7/2 14/8/2
f 14/8/3 68/7/3 69/9/3 16/10/3
f 16/10/4 69/9/4 70/11/4 18/12/4
f 18/12/5 70/11/5 71/13/5 20/14/5
f 20/14/6 71/13/6 72/15/6 22/16/6
f 22/16/7 72/15/7 73/17/7 24/18/7
f 24/18/8 73/17/8 74/19/8 26/20/8
f 26/20/9 74/19/9 75/21/9 28/22/9
f 28/22/10 75/21/10 76/23/10 30/24/10
f 30/24/11 76/23/11 77/25/11 32/26/11
f 32/26/12 77/25/12 78/27/12 34/28/12
f 34/28/13 78/27/13 79/29/13 36/30/13
f 36/30/14 79/29/14 80/31/14 38/32/14
f 38/32/15 80/31/15 81/33/15 40/34/15
f 40/34/16 81/33/16 82/35/16 42/36/16
f 42/36/17 82/35/17 83/37/17 44/38/17
f 44/38/18 83/37/18 84/39/18 46/40/18
f 46/40/19 84/39/19 85/41/19 48/42/19
f 48/42/20 85/41/20 86/43/20 50/44/20
f 50/44/21 86/43/21 87/45/21 52/46/21
f 52/46/22 87/45/22 88/47/22 54/48/22
f 45/49/17 43/50/17 114/51/17 115/52/17
f 54/48/23 88/47/23 89/53/23 56/54/23
f 56/54/24 89/53/24 59/55/24 1/56/24
f 2/57/25 4/58/25 58/59/25 59/60/25
f 4/58/25 5/61/25 60/62/25 58/59/25
f 5/61/25 6/63/25 61/64/25 60/62/25
f 6/63/25 7/65/25 62/66/25 61/64/25
f 7/65/25 8/67/25 63/68/25 62/66/25
f 8/67/25 9/69/25 64/70/25 63/68/25
f 9/69/25 10/71/25 65/72/25 64/70/25
f 10/71/25 11/73/25 66/74/25 65/72/25
f 11/73/25 13/75/25 67/76/25 66/74/25
f 13/75/25 15/77/25 68/78/25 67/76/25
f 15/77/25 17/79/25 69/80/25 68/78/25
f 17/79/25 19/81/25 70/82/25 69/80/25
f 19/81/25 21/83/25 71/84/25 70/82/25
f 21/83/25 23/85/25 72/86/25 71/84/25
f 23/85/25 25/87/25 73/88/25 72/86/25
f 25/87/25 27/89/25 74/90/25 73/88/25
f 27/89/25 29/91/25 75/92/25 74/90/25
f 29/91/25 31/93/25 76/94/25 75/92/25
f 31/93/25 33/95/25 77/96/25 76/94/25
f 33/95/25 35/97/25 78/98/25 77/96/25
f 35/97/25 37/99/25 79/100/25 78/98/25
f 37/99/25 39/101/25 80/102/25 79/100/25
f 39/101/25 41/103/25 81/104/25 80/102/25
f 41/103/25 43/50/25 82/105/25 81/104/25
f 43/50/25 45/49/25 83/106/25 82/105/25
f 45/49/25 47/107/25 84/108/25 83/106/25
f 47/107/25 49/109/25 85/110/25 84/108/25
f 49/109/25 51/111/25 86/112/25 85/110/25
f 51/111/25 53/113/25 87/114/25 86/112/25
f 53/113/25 55/115/25 88/116/25 87/114/25
f 55/115/25 57/117/25 89/118/25 88/116/25
f 57/117/25 2/57/25 59/60/25 89/118/25
f 90/119/25 91/120/25 121/121/25 120/122/25 119/123/25 118/124/25 117/125/25 116/126/25 115/52/25 114/51/25 113/127/25 112/128/25 111/129/25 110/130/25 109/131/25 108/132/25 107/133/25 106/134/25 105/135/25 104/136/25 103/137/25 102/138/25 101/139/25 100/140/25 99/141/25 98/142/25 97/143/25 96/144/25 95/145/25 94/146/25 93/147/25 92/148/25
f 19/81/4 17/79/4 101/139/4 102/138/4
f 47/107/18 45/49/18 115/52/18 116/126/18
f 49/109/19 47/107/19 116/126/19 117/125/19
f 23/85/6 21/83/6 103/137/6 104/136/6
f 51/111/20 49/109/20 117/125/20 118/124/20
f 25/87/7 23/85/7 104/136/7 105/135/7
f 53/113/21 51/111/21 118/124/21 119/123/21
f 27/89/8 25/87/8 105/135/8 106/134/8
f 55/115/22 53/113/22 119/123/22 120/122/22
f 29/91/9 27/89/9 106/134/9 107/133/9
f 31/93/10 29/91/10 107/133/10 108/132/10
f 33/95/11 31/93/11 108/132/11 109/131/11
f 35/97/12 33/95/12 109/131/12 110/130/12
f 37/99/13 35/97/13 110/130/13 111/129/13
f 39/101/14 37/99/14 111/129/14 112/128/14
f 41/103/15 39/101/15 112/128/15 113/127/15
f 43/50/16 41/103/16 113/127/16 114/51/16
