# Blender v2.90.0 OBJ File: 'Chess Room.blend'
# www.blender.org
mtllib Shelf.mtl
o Shelf_ShelfMesh
v -4.941109 7.626672 4.872983
v -4.941109 0.102109 2.092119
v -4.941109 7.626672 2.092119
v -3.356598 0.102109 4.872983
v -3.356598 7.626672 4.872983
v -3.356598 0.102109 2.092119
v -3.356598 7.626672 2.092119
v -4.941109 6.121759 2.092119
v -4.941109 4.616847 2.092119
v -4.941109 3.111934 2.092119
v -4.941109 1.607021 2.092119
v -3.356598 6.121759 2.092119
v -3.356598 4.616847 2.092119
v -3.356598 3.111934 2.092119
v -3.356598 1.607021 2.092119
v -3.356598 6.121759 4.872983
v -3.356598 4.616847 4.872983
v -3.356598 3.111934 4.872983
v -3.356598 1.607021 4.872983
v -3.356598 6.287826 2.258186
v -3.356598 7.460605 2.258186
v -3.356598 7.460605 4.706917
v -3.356598 6.287826 4.706917
v -3.356598 0.268175 2.258186
v -3.356598 1.440955 2.258186
v -3.356598 1.440955 4.706917
v -3.356598 0.268175 4.706917
v -3.356598 1.773088 2.258186
v -3.356598 2.945868 2.258186
v -3.356598 2.945868 4.706917
v -3.356598 1.773088 4.706917
v -3.356598 3.278001 2.258186
v -3.356598 4.450780 2.258186
v -3.356598 4.450780 4.706917
v -3.356598 3.278001 4.706917
v -3.356598 4.782914 2.258186
v -3.356598 5.955693 2.258186
v -3.356598 5.955693 4.706917
v -3.356598 4.782914 4.706917
v -4.407420 7.460605 2.258186
v -4.407420 6.287826 2.258186
v -4.407420 6.287826 4.706917
v -4.407420 7.460605 4.706917
v -4.407420 1.440955 2.258186
v -4.407420 0.268175 2.258186
v -4.407420 0.268175 4.706917
v -4.407420 1.440955 4.706917
v -4.407420 2.945868 2.258186
v -4.407420 1.773088 2.258186
v -4.407420 1.773088 4.706917
v -4.407420 2.945868 4.706917
v -4.407420 4.450780 2.258186
v -4.407420 3.278001 2.258186
v -4.407420 3.278001 4.706917
v -4.407420 4.450780 4.706917
v -4.407420 5.955693 2.258186
v -4.407420 4.782914 2.258186
v -4.407420 4.782914 4.706917
v -4.407420 5.955693 4.706917
vt 0.575000 0.250000
vt 0.625000 0.250000
vt 0.625000 0.500000
vt 0.575000 0.500000
vt 0.380517 0.735071
vt 0.380518 0.514929
vt 0.380518 0.514929
vt 0.380517 0.735071
vt 0.875000 0.500000
vt 0.875000 0.750000
vt 0.625000 0.750000
vt 0.580517 0.735071
vt 0.580517 0.514929
vt 0.580517 0.514929
vt 0.580517 0.735071
vt 0.375000 0.250000
vt 0.425000 0.250000
vt 0.425000 0.500000
vt 0.375000 0.500000
vt 0.475000 0.250000
vt 0.475000 0.500000
vt 0.525000 0.250000
vt 0.525000 0.500000
vt 0.619482 0.514929
vt 0.619482 0.735071
vt 0.575000 0.750000
vt 0.419482 0.514929
vt 0.425000 0.750000
vt 0.419482 0.735071
vt 0.375000 0.750000
vt 0.469482 0.514929
vt 0.430517 0.514929
vt 0.475000 0.750000
vt 0.469482 0.735071
vt 0.430517 0.735071
vt 0.519482 0.514929
vt 0.480517 0.514929
vt 0.525000 0.750000
vt 0.519482 0.735071
vt 0.480517 0.735071
vt 0.569483 0.514929
vt 0.530518 0.514929
vt 0.569483 0.735071
vt 0.530517 0.735071
vt 0.619482 0.514929
vt 0.619482 0.735071
vt 0.419482 0.514929
vt 0.419482 0.735071
vt 0.430517 0.514929
vt 0.469482 0.514929
vt 0.469482 0.735071
vt 0.430517 0.735071
vt 0.480517 0.514929
vt 0.519482 0.514929
vt 0.519482 0.735071
vt 0.480517 0.735071
vt 0.530518 0.514929
vt 0.569483 0.514929
vt 0.569483 0.735071
vt 0.530517 0.735071
vn 0.0000 0.0000 -1.0000
vn 0.0000 1.0000 0.0000
vn 1.0000 0.0000 0.0000
vn 0.0000 -1.0000 0.0000
usemtl (null)
s off
f 8/1/1 3/2/1 7/3/1 12/4/1
f 27/5/2 24/6/2 45/7/2 46/8/2
f 7/3/2 3/9/2 1/10/2 5/11/2
f 23/12/2 20/13/2 41/14/2 42/15/2
f 2/16/1 11/17/1 15/18/1 6/19/1
f 11/17/1 10/20/1 14/21/1 15/18/1
f 10/20/1 9/22/1 13/23/1 14/21/1
f 9/22/1 8/1/1 12/4/1 13/23/1
f 12/4/3 7/3/3 21/24/3 20/13/3
f 7/3/3 5/11/3 22/25/3 21/24/3
f 5/11/3 16/26/3 23/12/3 22/25/3
f 16/26/3 12/4/3 20/13/3 23/12/3
f 6/19/3 15/18/3 25/27/3 24/6/3
f 15/18/3 19/28/3 26/29/3 25/27/3
f 19/28/3 4/30/3 27/5/3 26/29/3
f 4/30/3 6/19/3 24/6/3 27/5/3
f 15/18/3 14/21/3 29/31/3 28/32/3
f 14/21/3 18/33/3 30/34/3 29/31/3
f 18/33/3 19/28/3 31/35/3 30/34/3
f 19/28/3 15/18/3 28/32/3 31/35/3
f 14/21/3 13/23/3 33/36/3 32/37/3
f 13/23/3 17/38/3 34/39/3 33/36/3
f 17/38/3 18/33/3 35/40/3 34/39/3
f 18/33/3 14/21/3 32/37/3 35/40/3
f 13/23/3 12/4/3 37/41/3 36/42/3
f 12/4/3 16/26/3 38/43/3 37/41/3
f 16/26/3 17/38/3 39/44/3 38/43/3
f 17/38/3 13/23/3 36/42/3 39/44/3
f 41/14/3 40/45/3 43/46/3 42/15/3
f 45/7/3 44/47/3 47/48/3 46/8/3
f 49/49/3 48/50/3 51/51/3 50/52/3
f 53/53/3 52/54/3 55/55/3 54/56/3
f 57/57/3 56/58/3 59/59/3 58/60/3
f 21/24/4 22/25/4 43/46/4 40/45/4
f 31/35/2 28/32/2 49/49/2 50/52/2
f 25/27/4 26/29/4 47/48/4 44/47/4
f 35/40/2 32/37/2 53/53/2 54/56/2
f 22/25/1 23/12/1 42/15/1 43/46/1
f 29/31/4 30/34/4 51/51/4 48/50/4
f 39/44/2 36/42/2 57/57/2 58/60/2
f 26/29/1 27/5/1 46/8/1 47/48/1
f 33/36/4 34/39/4 55/55/4 52/54/4
f 30/34/1 31/35/1 50/52/1 51/51/1
f 37/41/4 38/43/4 59/59/4 56/58/4
f 34/39/1 35/40/1 54/56/1 55/55/1
f 38/43/1 39/44/1 58/60/1 59/59/1
